<svg xmlns="http://www.w3.org/2000/svg" version="1.1" xmlns:xlink="http://www.w3.org/1999/xlink" xmlns:svgjs="http://svgjs.dev/svgjs" width="1440" height="560" preserveAspectRatio="none" viewBox="0 0 1440 560">
    <g mask="url(&quot;#SvgjsMask1062&quot;)" fill="none">
        <rect width="1440" height="560" x="0" y="0" fill="rgba(64, 10, 24, 1)"></rect>
        <path d="M0,304.269C62.433,299.803,126.566,311.867,182.926,284.638C243.069,255.582,305.212,212.023,323.756,147.855C342.029,84.625,283.133,25.719,276.681,-39.781C269.769,-109.945,328.649,-191.577,284.876,-246.847C241.596,-301.495,149.108,-260.73,83.356,-283.885C11.955,-309.03,-38.268,-393.614,-113.695,-387.208C-189.247,-380.791,-252.377,-317.385,-290.934,-252.096C-326.952,-191.107,-321.014,-115.993,-315.571,-45.372C-311.034,13.494,-280.358,63.574,-262.274,119.777C-241.228,185.185,-256.756,272.539,-200.557,312.072C-144.705,351.36,-68.112,309.142,0,304.269" fill="#330813"></path>
        <path d="M1440 998.241C1532.221 997.9590000000001 1628.6 1023.297 1710.504 980.913 1795.216 937.076 1849.643 851.933 1889.862 765.4449999999999 1930.278 678.5360000000001 1960.3600000000001 581.744 1939.649 488.161 1919.5059999999999 397.144 1847.187 329.884 1779.325 265.974 1717.077 207.351 1647.599 156.301 1564.761 135.10500000000002 1483.671 114.356 1395.755 114.62299999999999 1319.088 148.212 1246.641 179.95299999999997 1201.818 249.474 1156.214 314.098 1114.6 373.067 1079.519 435.313 1066.403 506.28499999999997 1052.901 579.346 1064.857 651.565 1080.42 724.215 1099.87 815.014 1094.5729999999999 926.287 1168.43 982.571 1242.04 1038.667 1347.452 998.524 1440 998.241" fill="#4d0c1d"></path>
    </g>
    <defs>
        <mask id="SvgjsMask1062">
            <rect width="1440" height="560" fill="#ffffff"></rect>
        </mask>
    </defs>
</svg>