<?xml version="1.0" standalone="no"?>
<!DOCTYPE svg PUBLIC "-//W3C//DTD SVG 20010904//EN"
 "http://www.w3.org/TR/2001/REC-SVG-20010904/DTD/svg10.dtd">
<svg version="1.0" xmlns="http://www.w3.org/2000/svg"
 viewBox="0 0 258.000000 231.000000"
 preserveAspectRatio="xMidYMid meet">

<g transform="translate(0.000000,231.000000) scale(0.100000,-0.100000)"
fill="white" stroke="none">
<path d="M30 2200 c0 -14 2496 -14 2505 0 4 7 -415 10 -1249 10 -831 0 -1256
-3 -1256 -10z"/>
<path d="M1460 2011 c0 -7 32 -11 98 -11 186 0 305 -36 395 -119 132 -122 197
-402 184 -791 -15 -417 -99 -631 -285 -724 -60 -30 -116 -43 -219 -52 -46 -3
-83 -11 -83 -17 0 -17 274 -1 367 22 222 55 383 184 480 386 131 273 133 668
4 921 -71 140 -167 236 -306 305 -133 65 -211 81 -437 86 -142 4 -198 2 -198
-6z"/>
<path d="M110 2001 c0 -4 28 -12 62 -15 83 -10 124 -28 148 -68 20 -32 20 -48
20 -768 0 -680 -1 -738 -18 -769 -22 -44 -68 -68 -148 -76 -170 -19 -14 -25
605 -25 l668 0 7 211 c7 192 5 232 -9 218 -2 -3 -9 -48 -15 -100 -14 -123 -51
-206 -109 -245 -74 -48 -123 -56 -418 -61 l-273 -5 0 436 0 436 298 2 c189 2
297 7 297 13 0 6 -108 11 -297 13 l-298 2 0 396 0 396 238 -5 c256 -5 315 -15
380 -64 58 -44 98 -152 105 -287 1 -32 7 -51 16 -54 12 -4 13 14 8 109 -4 63
-7 160 -7 217 l0 102 -630 0 c-351 0 -630 -4 -630 -9z"/>
<path d="M30 100 c0 -7 425 -10 1255 -10 830 0 1255 3 1255 10 0 7 -425 10
-1255 10 -830 0 -1255 -3 -1255 -10z"/>
</g>
</svg>
