<?xml version="1.0" standalone="no"?>
<!DOCTYPE svg PUBLIC "-//W3C//DTD SVG 20010904//EN"
 "http://www.w3.org/TR/2001/REC-SVG-20010904/DTD/svg10.dtd">
<svg version="1.0" xmlns="http://www.w3.org/2000/svg"
 width="922.000000pt" height="231.000000pt" viewBox="0 0 922.000000 231.000000"
 preserveAspectRatio="xMidYMid meet">

<g transform="translate(0.000000,231.000000) scale(0.100000,-0.100000)"
fill="white" stroke="none">
<path d="M70 2200 c0 -7 423 -10 1249 -10 823 0 1252 3 1256 10 4 7 -415 10
-1249 10 -831 0 -1256 -3 -1256 -10z"/>
<path d="M1500 2011 c0 -7 32 -11 98 -11 186 0 305 -36 395 -119 132 -122 197
-402 184 -791 -15 -417 -99 -631 -285 -724 -60 -30 -116 -43 -219 -52 -46 -3
-83 -11 -83 -17 0 -17 274 -1 367 22 222 55 383 184 480 386 131 273 133 668
4 921 -71 140 -167 236 -306 305 -133 65 -211 81 -437 86 -142 4 -198 2 -198
-6z"/>
<path d="M150 2001 c0 -4 28 -12 62 -15 83 -10 124 -28 148 -68 20 -32 20 -48
20 -768 0 -680 -1 -738 -18 -769 -22 -44 -68 -68 -148 -76 -170 -19 -14 -25
605 -25 l668 0 7 211 c7 192 5 232 -9 218 -2 -3 -9 -48 -15 -100 -14 -123 -51
-206 -109 -245 -74 -48 -123 -56 -418 -61 l-273 -5 0 436 0 436 298 2 c189 2
297 7 297 13 0 6 -108 11 -297 13 l-298 2 0 396 0 396 238 -5 c256 -5 315 -15
380 -64 58 -44 98 -152 105 -287 1 -32 7 -51 16 -54 12 -4 13 14 8 109 -4 63
-7 160 -7 217 l0 102 -630 0 c-351 0 -630 -4 -630 -9z"/>
<path d="M4210 1534 c-122 -23 -214 -115 -247 -249 -14 -58 -15 -78 -5 -137
21 -121 68 -190 164 -237 54 -27 71 -31 147 -31 100 0 154 20 214 78 72 69
115 194 102 292 -15 109 -93 218 -185 259 -46 20 -145 33 -190 25z m136 -53
c161 -73 202 -374 69 -507 -108 -108 -257 -73 -333 76 -66 131 -52 283 35 380
63 70 146 89 229 51z"/>
<path d="M5935 1245 c-101 -275 -124 -325 -153 -325 -7 0 -12 -7 -12 -15 0
-12 16 -15 85 -15 78 0 85 2 85 20 0 16 -7 20 -35 20 l-34 0 27 78 27 77 116
3 116 3 16 -43 c28 -74 30 -94 12 -112 -9 -9 -23 -16 -31 -16 -8 0 -14 -7 -14
-15 0 -12 18 -15 105 -15 98 0 105 1 105 20 0 15 -7 20 -28 20 -24 0 -29 5
-38 38 -21 79 -219 572 -230 572 -6 0 -60 -133 -119 -295z m159 16 c25 -69 46
-129 46 -133 0 -10 -200 -11 -200 0 -1 20 95 271 101 265 4 -5 28 -64 53 -132z"/>
<path d="M7107 1526 c-146 -41 -235 -177 -225 -344 8 -126 57 -211 157 -270
54 -31 183 -42 257 -22 72 21 137 78 176 157 30 61 33 76 33 158 0 82 -3 97
-33 157 -35 72 -88 124 -155 152 -55 23 -153 28 -210 12z m156 -39 c41 -18
104 -87 129 -145 28 -63 35 -183 15 -253 -17 -59 -71 -130 -116 -153 -107 -56
-236 0 -292 127 -30 70 -37 193 -16 268 39 130 168 202 280 156z"/>
<path d="M8680 1534 c-122 -23 -214 -115 -247 -249 -14 -58 -15 -78 -5 -137
21 -121 68 -190 164 -237 54 -27 71 -31 147 -31 100 0 154 20 214 78 72 69
115 194 102 292 -15 109 -93 218 -185 259 -46 20 -145 33 -190 25z m136 -53
c161 -73 202 -374 69 -507 -108 -108 -257 -73 -333 76 -66 131 -52 283 35 380
63 70 146 89 229 51z"/>
<path d="M3410 1499 c0 -17 5 -20 33 -17 25 2 32 -1 31 -14 0 -10 -1 -133 -2
-274 l-2 -256 -30 -11 c-16 -6 -30 -17 -30 -24 0 -10 27 -13 110 -13 103 0
110 1 110 20 0 17 -7 20 -40 20 l-40 0 0 99 0 98 83 5 c162 10 250 85 250 211
0 65 -17 96 -73 134 -52 36 -95 43 -252 43 -143 0 -148 -1 -148 -21z m314 -34
c52 -25 70 -59 71 -132 0 -69 -17 -101 -74 -140 -32 -22 -128 -40 -156 -29
-12 4 -15 29 -15 143 0 174 7 188 86 180 29 -3 68 -13 88 -22z"/>
<path d="M4680 1500 c0 -20 4 -22 30 -16 l30 6 0 -269 c0 -247 -1 -269 -18
-284 -10 -10 -24 -17 -30 -17 -7 0 -12 -7 -12 -15 0 -12 18 -15 100 -15 93 0
100 1 100 20 0 16 -7 20 -30 20 l-30 0 0 120 0 120 34 0 c33 0 37 -5 101 -107
37 -60 81 -123 98 -140 27 -29 37 -33 84 -33 39 0 53 4 53 14 0 8 -11 17 -24
20 -29 7 -46 28 -132 159 l-64 98 26 9 c14 6 28 10 31 10 21 0 74 57 88 95 33
84 7 157 -68 197 -38 20 -59 23 -204 26 -163 4 -163 4 -163 -18z m271 -20 c56
-16 82 -51 86 -118 7 -101 -47 -152 -162 -152 l-55 0 0 124 c0 100 3 128 16
140 18 18 63 20 115 6z"/>
<path d="M5220 1425 c0 -74 3 -95 14 -95 9 0 16 17 20 50 4 30 16 60 30 77 21
24 32 28 95 31 l71 4 0 -255 c0 -141 -4 -267 -9 -280 -6 -14 -19 -28 -30 -32
-12 -3 -21 -13 -21 -21 0 -11 21 -14 105 -14 98 0 105 1 105 20 0 17 -7 20
-41 20 -38 0 -41 2 -35 23 3 12 6 138 6 280 l0 257 58 0 c37 0 66 -6 81 -16
28 -20 51 -72 51 -114 0 -20 5 -30 15 -30 12 0 15 17 15 95 l0 95 -265 0 -265
0 0 -95z"/>
<path d="M6390 1499 c0 -19 4 -21 30 -15 l30 6 0 -270 c0 -231 -2 -271 -16
-284 -8 -9 -22 -16 -30 -16 -8 0 -14 -7 -14 -15 0 -12 19 -15 115 -15 108 0
115 1 115 20 0 17 -7 20 -45 20 l-45 0 0 130 0 130 63 0 c70 0 97 -17 97 -58
0 -13 6 -22 15 -22 12 0 15 17 15 95 0 90 -1 95 -21 95 -19 0 -20 -4 -14 -40
l7 -40 -81 0 -81 0 0 115 c0 104 2 117 21 136 19 19 30 21 100 17 91 -4 118
-21 128 -84 3 -21 12 -39 19 -42 9 -3 12 17 12 77 l0 81 -210 0 c-207 0 -210
0 -210 -21z"/>
<path d="M7600 1499 c0 -17 5 -20 33 -17 25 2 32 -1 31 -14 0 -10 -1 -133 -2
-274 l-2 -256 -30 -11 c-16 -6 -30 -17 -30 -24 0 -10 49 -13 225 -13 l225 0 2
80 c0 44 1 86 2 93 1 6 -6 12 -14 12 -10 0 -17 -14 -21 -40 -6 -48 -23 -81
-47 -94 -9 -5 -65 -12 -124 -16 l-108 -7 0 262 c0 165 4 269 11 281 5 11 21
24 35 29 51 20 23 30 -81 30 -100 0 -105 -1 -105 -21z"/>
<path d="M8122 1503 c3 -13 13 -18 36 -17 l32 2 0 -253 c0 -140 -4 -265 -10
-279 -5 -14 -20 -28 -35 -32 -14 -3 -25 -12 -25 -20 0 -11 22 -14 105 -14 98
0 105 1 105 20 0 16 -7 20 -32 20 l-33 0 3 267 c2 169 7 272 14 280 6 7 19 13
29 13 11 0 19 7 19 15 0 12 -18 15 -106 15 -95 0 -105 -2 -102 -17z"/>
<path d="M70 100 c0 -7 425 -10 1255 -10 830 0 1255 3 1255 10 0 7 -425 10
-1255 10 -830 0 -1255 -3 -1255 -10z"/>
</g>
</svg>
