<!DOCTYPE svg PUBLIC "-//W3C//DTD SVG 1.1//EN" "http://www.w3.org/Graphics/SVG/1.1/DTD/svg11.dtd">
<!-- Uploaded to: SVG Repo, www.svgrepo.com, Transformed by: SVG Repo Mixer Tools -->
<svg fill="#ffffff" height="800px" width="800px" version="1.1" id="Layer_1" xmlns="http://www.w3.org/2000/svg" xmlns:xlink="http://www.w3.org/1999/xlink" viewBox="0 0 512 512" xml:space="preserve">
<g id="SVGRepo_bgCarrier" stroke-width="0"/>
<g id="SVGRepo_tracerCarrier" stroke-linecap="round" stroke-linejoin="round"/>
<g id="SVGRepo_iconCarrier"> <g> <g> <path d="M133.565,89.6c-36.824,0-66.783,29.959-66.783,66.783s29.959,66.783,66.783,66.783c36.824,0,66.783-29.959,66.783-66.783 S170.389,89.6,133.565,89.6z M133.565,189.774c-18.412,0-33.391-14.979-33.391-33.391c0-18.412,14.979-33.391,33.391-33.391 c18.412,0,33.391,14.979,33.391,33.391C166.957,174.795,151.977,189.774,133.565,189.774z"/> </g> </g> <g> <g> <path d="M367.304,89.6c-36.824,0-66.783,29.959-66.783,66.783s29.959,66.783,66.783,66.783s66.783-29.959,66.783-66.783 S404.128,89.6,367.304,89.6z M367.304,189.774c-18.412,0-33.391-14.979-33.391-33.391c0-18.412,14.979-33.391,33.391-33.391 c18.412,0,33.391,14.979,33.391,33.391C400.696,174.795,385.716,189.774,367.304,189.774z"/> </g> </g> <g> <g> <path d="M490.507,306.235l-89.811,26.943V305.53c0-9.081-7.255-16.453-16.282-16.674c65.597-8.426,116.456-64.621,116.456-132.473 c0-73.648-59.917-133.565-133.565-133.565c-50.231,0-94.067,27.877-116.87,68.968c-22.803-41.09-66.639-68.968-116.87-68.968 C59.917,22.817,0,82.735,0,156.383c0,67.852,50.858,124.048,116.456,132.473c-9.027,0.221-16.282,7.593-16.282,16.675v133.565 c0,27.618,22.469,50.087,50.087,50.087h200.348c25.709,0,46.945-19.473,49.76-44.442l90.139,27.041 c10.656,3.199,21.493-4.766,21.493-15.991V322.226C512,311.058,501.212,303.019,490.507,306.235z M350.152,288.835H150.717 c42.937-5.531,79.553-31.518,99.718-67.854C270.599,257.317,307.216,283.304,350.152,288.835z M33.391,156.383 c0-55.236,44.938-100.174,100.174-100.174s100.174,44.938,100.174,100.174s-44.938,100.174-100.174,100.174 S33.391,211.619,33.391,156.383z M367.304,439.096c0,9.206-7.49,16.696-16.696,16.696H150.261c-9.206,0-16.696-7.49-16.696-16.696 v-116.87h233.739C367.304,335.989,367.304,425.563,367.304,439.096z M267.13,156.383c0-55.236,44.938-100.174,100.174-100.174 s100.174,44.938,100.174,100.174S422.54,256.556,367.304,256.556S267.13,211.619,267.13,156.383z M478.609,433.352l-77.913-23.374 v-41.94l77.913-23.374V433.352z"/> </g> </g> <g> <g> <circle cx="183.652" cy="372.313" r="16.696"/> </g> </g> <g> <g> <circle cx="250.435" cy="372.313" r="16.696"/> </g> </g> </g>
</svg>