<?xml version="1.0" standalone="no"?>
<!DOCTYPE svg PUBLIC "-//W3C//DTD SVG 20010904//EN"
 "http://www.w3.org/TR/2001/REC-SVG-20010904/DTD/svg10.dtd">
<svg version="1.0" xmlns="http://www.w3.org/2000/svg"
 width="1200.000000pt" height="900.000000pt" viewBox="0 0 1200.000000 900.000000"
 preserveAspectRatio="xMidYMid meet">

<g transform="translate(0.000000,900.000000) scale(0.100000,-0.100000)"
fill="#000000" stroke="none">
<path d="M5850 8739 c-237 -12 -428 -30 -520 -49 -52 -11 -112 -20 -133 -20
-21 0 -63 -9 -94 -20 -32 -11 -72 -20 -90 -20 -19 0 -50 -7 -71 -16 -20 -8
-64 -20 -97 -25 -32 -6 -64 -14 -70 -19 -6 -5 -33 -14 -60 -20 -28 -6 -63 -17
-80 -24 -37 -17 -117 -44 -170 -58 -22 -6 -47 -16 -55 -23 -8 -7 -26 -16 -40
-20 -31 -9 -103 -40 -152 -65 -20 -11 -45 -20 -56 -20 -10 0 -27 -9 -37 -20
-10 -11 -28 -20 -40 -20 -12 0 -30 -9 -40 -20 -10 -11 -26 -20 -35 -20 -10 0
-28 -8 -41 -18 -13 -10 -35 -23 -49 -30 -14 -7 -43 -23 -65 -37 -22 -13 -53
-31 -70 -39 -33 -17 -58 -34 -129 -83 -26 -18 -51 -33 -55 -33 -9 0 -74 -48
-102 -75 -9 -8 -19 -15 -24 -15 -4 0 -32 -19 -61 -42 -29 -24 -63 -51 -76 -61
-105 -81 -305 -262 -421 -384 -173 -181 -210 -224 -314 -361 -10 -13 -23 -29
-29 -35 -6 -7 -30 -41 -55 -76 -24 -35 -56 -81 -72 -103 -15 -21 -27 -42 -27
-47 0 -4 -9 -16 -20 -26 -11 -10 -20 -22 -20 -26 0 -4 -18 -35 -40 -68 -22
-33 -40 -64 -40 -70 0 -5 -6 -16 -14 -24 -8 -8 -22 -29 -30 -48 -9 -19 -41
-81 -71 -138 -30 -58 -55 -110 -55 -117 0 -6 -6 -17 -14 -23 -8 -7 -18 -27
-22 -44 -3 -18 -15 -43 -25 -56 -11 -13 -19 -32 -19 -42 0 -11 -9 -36 -20 -56
-11 -21 -20 -45 -20 -53 0 -8 -9 -28 -20 -45 -11 -16 -20 -41 -20 -55 0 -14
-9 -42 -20 -63 -11 -20 -20 -47 -20 -58 0 -12 -8 -40 -19 -63 -20 -45 -47
-142 -62 -226 -5 -30 -16 -71 -23 -90 -7 -19 -17 -62 -20 -95 -4 -33 -13 -82
-21 -110 -7 -27 -17 -88 -20 -135 -4 -47 -14 -121 -23 -165 -23 -115 -23 -754
0 -865 9 -41 19 -117 23 -169 4 -51 13 -114 20 -138 8 -25 17 -75 21 -111 3
-37 12 -78 19 -92 7 -14 18 -56 23 -93 6 -38 16 -74 21 -81 6 -7 14 -35 17
-62 4 -27 15 -66 25 -86 11 -21 19 -47 19 -58 0 -11 9 -38 20 -60 11 -22 20
-50 20 -62 0 -13 9 -36 20 -53 11 -16 20 -39 20 -50 0 -11 9 -35 20 -53 11
-18 20 -37 20 -43 0 -23 177 -384 196 -400 8 -6 14 -18 14 -26 0 -8 9 -26 20
-40 11 -14 20 -31 20 -38 0 -6 9 -20 20 -30 11 -10 20 -26 20 -35 0 -9 9 -25
20 -35 11 -10 20 -23 20 -30 0 -7 9 -20 20 -30 11 -10 20 -24 20 -32 0 -7 9
-21 20 -30 11 -10 20 -22 20 -29 0 -6 9 -19 20 -29 11 -10 20 -22 20 -27 0 -8
42 -66 75 -104 6 -6 17 -22 25 -34 25 -38 109 -138 234 -280 138 -156 451
-439 586 -530 12 -8 50 -36 83 -62 34 -26 66 -48 70 -48 4 0 30 -18 58 -40 28
-22 56 -40 63 -40 7 0 21 -9 31 -20 10 -11 24 -20 31 -20 7 0 19 -6 26 -13 7
-7 24 -18 38 -25 14 -7 48 -26 75 -42 28 -17 57 -33 65 -36 8 -3 22 -10 30
-15 8 -5 33 -18 55 -29 22 -11 47 -24 55 -28 8 -5 38 -19 65 -32 28 -12 67
-31 87 -41 20 -11 43 -19 50 -19 7 0 34 -11 60 -25 26 -14 54 -25 63 -25 9 0
26 -6 38 -14 12 -8 38 -17 57 -21 19 -4 44 -13 56 -20 12 -8 39 -17 60 -21 21
-4 57 -15 79 -25 22 -10 54 -19 70 -19 17 0 40 -6 51 -14 11 -8 42 -17 69 -21
28 -4 74 -15 103 -26 29 -10 70 -19 91 -19 22 0 67 -9 102 -19 35 -10 102 -21
149 -24 47 -3 117 -13 155 -23 59 -14 130 -16 465 -16 359 0 405 2 509 21 63
12 135 21 160 21 25 0 78 9 116 20 38 11 86 20 107 20 20 0 56 8 80 18 24 11
67 22 97 25 29 4 59 11 66 17 7 5 38 15 70 21 32 6 68 17 79 24 12 7 40 16 63
20 22 3 49 13 60 20 10 8 27 15 38 15 12 0 38 9 59 19 21 11 52 23 69 27 18 3
39 12 47 19 8 7 26 16 40 20 14 3 43 15 65 25 22 10 51 23 65 29 14 6 32 15
40 20 8 5 26 14 40 20 14 6 32 15 40 20 8 5 26 14 40 20 14 6 32 15 40 20 8 5
26 14 40 20 27 13 72 38 135 76 22 13 55 31 73 40 17 10 32 21 32 26 0 5 6 9
13 9 6 0 35 16 62 35 28 20 66 46 86 60 162 107 422 325 594 499 138 139 283
305 360 412 11 15 39 51 63 80 23 29 42 55 42 59 0 7 38 61 63 89 9 11 17 23
17 27 0 11 59 97 71 104 5 4 9 14 9 24 0 10 9 26 20 36 11 10 20 26 20 35 0
10 7 23 15 30 8 7 31 44 50 84 20 39 40 78 45 86 6 8 14 26 20 40 5 14 14 32
19 40 23 40 61 129 61 142 0 9 6 21 14 27 8 7 18 26 22 43 3 17 15 45 25 62
10 17 19 43 19 57 0 15 7 32 15 39 8 7 17 28 20 49 4 20 14 52 24 71 10 19 21
55 25 79 4 24 13 53 21 64 8 12 15 34 15 49 0 15 8 49 19 75 10 26 21 72 25
102 4 30 13 69 20 86 8 18 17 65 21 106 4 40 13 89 20 109 7 19 16 80 20 135
3 55 13 143 21 195 17 114 19 577 4 678 -6 37 -17 130 -24 207 -13 133 -33
255 -58 355 -6 25 -17 74 -24 110 -7 36 -19 85 -27 110 -8 25 -19 63 -25 85
-6 22 -16 60 -23 85 -6 25 -19 63 -29 85 -10 22 -21 56 -25 75 -4 19 -14 44
-21 55 -8 11 -14 28 -14 39 0 10 -8 33 -19 50 -10 17 -22 42 -26 56 -4 14 -15
44 -26 68 -10 23 -28 63 -40 90 -11 26 -25 54 -30 62 -5 8 -14 26 -19 40 -6
14 -15 32 -20 40 -6 8 -15 26 -21 40 -6 14 -15 32 -20 40 -5 8 -16 29 -24 47
-8 17 -19 34 -24 37 -4 3 -21 30 -36 61 -15 30 -36 63 -46 74 -11 11 -19 27
-19 35 0 8 -5 18 -10 21 -9 6 -30 35 -75 106 -26 42 -50 75 -59 84 -6 6 -24
30 -41 55 -16 25 -35 52 -42 60 -7 8 -45 55 -84 104 -160 199 -466 500 -651
638 -20 15 -42 33 -50 40 -22 22 -86 68 -93 68 -4 0 -29 18 -55 40 -26 22 -51
40 -54 40 -4 0 -31 18 -61 40 -30 22 -65 45 -77 51 -13 5 -39 20 -60 32 -87
53 -148 87 -154 87 -3 0 -17 9 -31 20 -14 11 -32 20 -40 20 -8 0 -23 9 -35 20
-12 11 -29 20 -37 20 -9 0 -29 9 -46 20 -16 11 -37 20 -46 20 -9 0 -28 9 -42
20 -14 11 -31 20 -37 20 -7 0 -31 8 -54 19 -112 50 -138 61 -149 61 -7 0 -30
9 -52 20 -21 11 -55 23 -74 26 -20 4 -45 13 -56 20 -11 6 -43 17 -70 22 -28 6
-64 18 -80 26 -17 9 -44 16 -61 16 -18 0 -51 9 -75 20 -24 11 -60 20 -80 20
-20 0 -65 9 -99 20 -34 11 -80 20 -101 20 -21 0 -75 9 -121 20 -46 11 -107 20
-136 20 -29 0 -115 6 -190 14 -172 18 -305 23 -452 15z m-2895 -3332 c44 -7
94 -20 112 -30 18 -9 38 -17 45 -17 17 -1 68 -46 68 -60 0 -6 -12 -29 -27 -53
-15 -23 -33 -53 -40 -67 -7 -14 -17 -32 -23 -40 -5 -8 -14 -27 -20 -43 -12
-35 -54 -56 -78 -39 -58 41 -93 52 -165 52 -59 0 -80 -4 -100 -20 -14 -11 -29
-20 -34 -20 -17 0 -66 -59 -81 -97 -20 -50 -19 -108 2 -162 18 -46 66 -101 88
-101 7 0 27 -9 43 -20 69 -46 223 -12 285 63 23 28 92 143 106 177 59 145 153
287 237 359 40 34 96 71 108 71 5 0 26 8 47 19 65 32 205 46 319 31 54 -7 108
-19 120 -26 12 -8 28 -14 34 -14 21 0 148 -91 179 -129 64 -76 90 -114 90
-130 0 -10 5 -22 11 -28 6 -6 18 -53 26 -105 11 -74 12 -108 3 -168 -12 -75
-42 -159 -70 -192 -86 -102 -194 -191 -248 -204 -15 -4 -38 -14 -52 -23 -18
-12 -57 -17 -165 -19 -132 -4 -147 -2 -219 23 -110 38 -216 113 -216 153 0 10
14 39 30 65 17 26 30 53 30 59 0 6 8 20 17 30 10 11 22 34 28 51 14 46 46 47
89 3 90 -89 222 -113 328 -58 79 40 103 73 128 170 10 42 -17 128 -53 164 -80
80 -202 100 -298 51 -30 -16 -64 -39 -76 -53 -28 -31 -83 -112 -83 -123 0 -5
-9 -20 -20 -34 -11 -14 -20 -34 -20 -44 0 -11 -5 -19 -10 -19 -6 0 -16 -12
-22 -27 -7 -16 -35 -68 -63 -118 -68 -122 -138 -193 -245 -247 l-85 -43 -181
0 c-153 0 -185 3 -200 16 -11 9 -31 19 -46 23 -39 9 -143 82 -179 125 -59 72
-89 114 -89 127 0 7 -5 14 -10 16 -10 3 -25 72 -39 175 -4 33 -2 71 6 100 6
27 12 58 13 71 0 40 63 150 125 220 33 38 130 106 167 117 13 4 32 14 43 21
11 8 35 14 55 15 19 1 46 5 60 9 37 12 125 11 215 -3z m3725 -30 c52 -12 101
-26 108 -30 15 -10 16 -73 1 -83 -6 -3 -17 -21 -25 -38 -30 -67 -61 -111 -81
-114 -12 -2 -38 6 -59 17 -54 29 -156 29 -184 1 -25 -25 -25 -31 0 -63 17 -21
32 -27 88 -33 37 -4 83 -15 102 -25 19 -11 40 -19 47 -19 14 0 73 -38 100 -65
10 -10 28 -39 40 -64 31 -63 33 -203 3 -241 -11 -14 -20 -32 -20 -42 0 -23
-90 -101 -152 -131 -29 -14 -89 -33 -133 -42 -77 -16 -207 -21 -226 -9 -5 3
-39 10 -74 15 -36 5 -82 18 -102 29 -21 11 -41 20 -46 20 -17 0 -67 45 -66 59
0 9 9 30 20 46 10 17 35 63 55 103 20 39 40 72 45 72 5 0 42 -16 82 -36 59
-29 87 -36 154 -41 71 -5 86 -3 103 12 47 42 -2 99 -93 109 -32 3 -72 13 -87
21 -16 8 -38 15 -49 15 -23 0 -119 74 -128 98 -4 9 -15 30 -26 45 -17 25 -19
39 -14 102 22 254 287 388 617 312z m900 -2 c30 -10 75 -28 100 -39 52 -24
190 -158 190 -184 0 -10 5 -23 12 -30 20 -20 57 -164 58 -224 0 -54 -1 -56
-31 -67 -21 -7 -146 -11 -355 -11 -178 0 -325 -4 -328 -9 -9 -14 30 -94 57
-119 14 -13 50 -30 82 -38 73 -19 139 -5 194 43 l38 32 148 2 c158 1 165 -1
165 -50 0 -14 -12 -43 -27 -65 -68 -102 -183 -182 -299 -207 -114 -26 -371 -9
-414 26 -8 7 -26 16 -40 20 -51 15 -210 169 -210 203 0 5 -10 31 -21 57 -18
41 -21 69 -22 185 -1 108 2 142 14 161 9 13 21 38 27 56 17 52 88 137 144 175
86 57 106 68 125 69 10 0 43 9 73 20 71 24 237 22 320 -6z m1626 -1 c40 -15
79 -33 85 -40 17 -21 57 -17 64 5 8 25 37 28 215 21 l135 -5 0 -465 0 -465
-171 -3 -172 -2 -11 30 c-9 28 -12 30 -33 19 -13 -6 -35 -20 -49 -30 -14 -10
-46 -23 -70 -29 -131 -33 -125 -33 -222 -9 -105 26 -146 47 -222 113 -54 46
-115 126 -115 150 0 7 -10 26 -22 42 -22 27 -23 37 -22 184 0 169 2 176 86
306 28 43 115 124 134 124 6 0 19 9 29 20 10 11 27 20 38 20 10 0 33 6 50 14
52 23 59 24 130 25 50 1 89 -6 143 -25z m-3112 -10 c21 -21 20 -56 -3 -85 -31
-40 -71 -134 -71 -166 0 -37 -12 -43 -88 -43 -31 0 -68 -7 -82 -15 -14 -8 -35
-19 -47 -24 -13 -6 -23 -17 -23 -24 0 -8 -9 -24 -20 -37 -24 -28 -21 -1 -29
-300 l-6 -245 -173 -3 -172 -2 -9 23 c-5 13 -6 216 -3 468 l7 444 175 0 175 0
3 -40 c5 -58 17 -64 55 -27 18 18 38 32 43 32 6 0 19 9 31 19 35 33 211 52
237 25z m2587 6 c33 -18 24 -65 -25 -129 -24 -31 -51 -75 -60 -96 -26 -60 -43
-75 -92 -75 -34 0 -52 -7 -91 -38 -41 -33 -52 -49 -71 -108 -20 -63 -22 -88
-22 -281 0 -173 -3 -213 -14 -220 -8 -4 -86 -6 -173 -3 l-158 5 -2 462 c-2
338 0 464 9 469 9 6 194 8 326 4 8 0 12 -19 12 -60 0 -47 3 -60 15 -60 8 0 15
4 15 9 0 13 53 71 65 71 6 0 22 8 35 18 14 9 59 22 100 28 101 15 108 16 131
4z m-3983 -23 c11 -9 13 -68 10 -293 -3 -274 -2 -283 18 -311 31 -42 93 -59
159 -43 40 10 56 19 66 39 10 19 15 103 19 318 3 160 8 295 12 298 8 8 317 7
330 -1 4 -3 8 -140 8 -306 0 -320 -3 -343 -54 -446 -28 -57 -99 -127 -157
-157 -72 -36 -241 -68 -314 -60 -83 10 -171 32 -231 60 -51 24 -124 91 -148
135 -7 14 -17 34 -23 45 -6 11 -19 54 -29 95 -15 65 -17 112 -15 350 1 151 5
278 9 282 13 12 46 13 187 10 79 -3 146 -9 153 -15z m-1680 -1219 c16 -16 17
-480 2 -509 -14 -26 -48 -24 -70 4 l-18 22 -24 -22 c-36 -34 -113 -32 -167 4
-22 14 -43 34 -46 44 -3 9 -12 20 -20 23 -11 4 -15 24 -15 84 0 65 4 83 20
102 11 13 20 26 20 30 0 3 18 18 41 33 51 34 123 37 161 7 14 -10 28 -16 32
-13 3 3 6 45 6 93 0 91 8 110 45 110 12 0 26 -5 33 -12z m2877 -28 c0 -31 -4
-36 -35 -46 -35 -11 -75 -63 -55 -70 6 -2 25 -13 43 -24 45 -28 43 -57 -6 -76
l-37 -15 3 -110 c4 -117 -8 -159 -46 -159 -36 0 -42 20 -42 147 0 109 -2 124
-17 129 -38 12 -48 22 -48 49 0 27 11 38 46 48 11 4 18 22 23 55 5 41 13 56
42 82 31 27 42 31 82 28 46 -3 47 -3 47 -38z m-1287 11 c26 -23 28 -48 5 -73
-22 -25 -61 -23 -84 5 -24 28 -24 29 6 61 28 31 42 32 73 7z m-208 -36 c7 -9
14 -34 14 -56 1 -32 6 -42 26 -52 19 -10 25 -20 25 -47 0 -28 -4 -35 -25 -40
-25 -6 -25 -7 -25 -110 0 -127 -8 -158 -43 -167 -43 -10 -52 15 -50 151 2 118
1 121 -22 126 -13 3 -28 13 -34 22 -14 23 8 68 33 68 24 0 30 15 23 57 -2 19
1 39 8 48 16 19 54 19 70 0z m-1869 -134 c34 -21 51 -41 68 -81 13 -30 20 -62
17 -75 -5 -21 -13 -24 -98 -30 -51 -4 -108 -5 -127 -3 -43 4 -48 -10 -16 -45
36 -38 77 -36 153 7 31 18 62 9 62 -18 0 -28 -8 -38 -55 -69 -58 -39 -131 -38
-190 3 -53 37 -100 125 -90 170 14 62 46 111 92 141 63 39 122 40 184 0z m656
-1 c8 -16 12 -63 12 -129 -2 -117 2 -123 66 -119 55 4 67 32 69 159 1 77 4
102 16 109 21 13 33 12 56 -4 17 -13 19 -27 18 -170 -1 -162 -7 -186 -45 -186
-11 0 -19 4 -19 9 0 17 -33 21 -56 6 -33 -21 -91 -19 -130 6 -60 37 -64 49
-64 200 0 74 3 139 7 143 15 15 58 0 70 -24z m579 4 c24 -14 44 -29 44 -32 0
-3 -10 -16 -22 -29 -22 -24 -52 -30 -63 -13 -3 6 -28 10 -55 10 -44 0 -52 -4
-74 -33 -33 -44 -33 -83 2 -125 22 -26 35 -32 68 -34 24 -1 51 6 65 15 22 16
24 16 51 -10 15 -15 28 -30 28 -34 0 -4 -21 -19 -46 -33 -96 -53 -207 -17
-260 84 -31 58 -30 96 3 155 55 99 166 133 259 79z m326 6 c22 -20 22 -20 43
0 12 11 28 20 37 20 35 0 43 -29 46 -177 3 -120 1 -148 -12 -168 -20 -30 -50
-32 -69 -4 -13 17 -19 19 -36 10 -12 -7 -21 -16 -21 -21 0 -6 -25 -10 -55 -10
-60 0 -103 23 -152 81 -25 29 -28 41 -28 104 0 64 3 75 29 106 44 52 94 78
149 79 34 0 54 -6 69 -20z m851 0 c14 -11 28 -20 31 -20 4 0 20 -15 36 -32 27
-31 29 -39 30 -112 0 -70 -3 -81 -26 -110 -67 -78 -168 -100 -240 -51 -44 30
-58 47 -83 102 -31 68 0 162 70 211 56 38 141 44 182 12z m268 3 c15 -3 30 0
33 6 4 6 27 11 50 11 35 0 50 -6 79 -32 46 -44 57 -81 57 -200 0 -106 -9 -138
-40 -138 -37 0 -50 37 -50 143 0 90 -2 100 -24 122 -21 21 -29 23 -58 15 -18
-6 -34 -10 -34 -10 -10 0 -19 -55 -24 -145 -5 -109 -5 -110 -33 -119 -48 -17
-52 -2 -52 180 0 176 5 192 50 178 11 -3 32 -8 46 -11z m974 -13 c62 -43 85
-85 85 -156 0 -188 -241 -252 -341 -90 -36 57 -39 127 -9 166 11 14 20 30 20
35 0 6 21 25 48 42 66 45 135 46 197 3z m245 18 c19 0 54 4 77 7 39 7 43 5 48
-18 12 -48 3 -62 -42 -65 -66 -5 -77 -25 -83 -153 -5 -116 -11 -129 -56 -129
-12 0 -25 7 -28 16 -8 21 -8 318 0 339 5 12 13 15 28 9 11 -4 37 -7 56 -6z
m603 -19 c51 -32 87 -93 87 -148 l0 -28 -100 -7 c-55 -4 -116 -4 -135 0 -30 5
-35 3 -35 -12 0 -11 16 -30 35 -43 39 -26 93 -25 124 3 17 15 33 19 64 17 12
-1 17 -10 17 -30 0 -24 -8 -35 -50 -60 -93 -57 -199 -30 -254 64 -96 163 88
345 247 244z m192 -9 c14 -22 25 -44 25 -50 0 -6 9 -30 19 -53 10 -23 21 -51
23 -62 6 -33 31 -23 39 15 4 19 15 49 23 65 9 17 16 36 16 44 0 8 11 29 26 48
26 35 70 45 80 19 6 -14 -11 -70 -41 -141 -70 -163 -87 -196 -107 -209 -26
-16 -65 11 -79 53 -6 20 -20 50 -30 67 -11 17 -19 39 -19 49 0 10 -8 32 -18
49 -26 43 -46 111 -39 130 4 9 18 16 32 16 18 0 31 -11 50 -40z m553 9 c24
-17 52 -49 62 -70 22 -42 26 -94 9 -104 -5 -4 -65 -9 -132 -11 -67 -2 -123 -7
-125 -12 -1 -4 9 -19 22 -31 34 -32 92 -38 126 -13 37 28 64 34 84 19 17 -12
17 -16 3 -43 -37 -71 -148 -95 -230 -48 -124 69 -127 234 -7 314 64 42 130 42
188 -1z m210 11 l19 -20 25 20 c27 21 91 27 117 11 7 -5 26 -4 43 3 27 10 32
8 54 -17 13 -15 26 -40 30 -55 3 -15 11 -38 19 -52 7 -14 16 -40 20 -57 3 -18
12 -33 18 -33 7 0 26 36 42 81 39 104 71 145 108 135 15 -3 27 -13 27 -21 0
-16 -22 -70 -51 -127 -10 -20 -19 -45 -19 -55 0 -10 -9 -29 -20 -43 -11 -14
-20 -34 -20 -45 0 -11 -9 -33 -20 -50 -11 -16 -20 -40 -20 -51 0 -12 -9 -33
-20 -47 -11 -14 -20 -31 -20 -38 0 -21 -32 -49 -56 -49 -37 0 -42 43 -13 97
32 58 32 134 1 187 -12 20 -22 43 -22 49 0 7 -8 28 -19 47 -10 19 -21 52 -25
73 -8 43 -17 47 -36 12 -11 -21 -20 -25 -61 -25 l-48 0 -21 -66 c-11 -36 -20
-94 -20 -128 0 -64 -11 -86 -41 -86 -38 0 -45 31 -43 189 2 151 8 181 40 181
7 0 22 -9 32 -20z m818 -6 c24 -14 44 -30 44 -35 0 -4 10 -18 22 -29 20 -18
22 -31 22 -95 -1 -66 -4 -77 -30 -108 -63 -74 -169 -101 -225 -59 -13 10 -32
21 -41 25 -18 6 -78 115 -78 140 0 8 11 39 24 69 48 108 164 149 262 92z m285
14 c10 7 38 12 62 12 36 0 48 -6 74 -32 42 -44 52 -85 54 -206 2 -115 -8 -140
-54 -128 -31 7 -37 29 -37 138 0 113 -11 138 -61 138 -29 0 -42 -6 -58 -26
-18 -23 -20 -39 -19 -124 2 -107 -7 -130 -48 -130 -13 0 -28 9 -34 19 -11 22
-14 310 -2 327 12 18 35 21 70 10 24 -7 39 -7 53 2z m522 -18 c27 -17 52 -42
58 -58 5 -15 16 -40 23 -56 26 -54 15 -63 -95 -70 -54 -4 -115 -4 -134 0 -31
5 -35 4 -35 -14 0 -31 63 -66 107 -59 19 4 43 13 53 22 9 8 31 15 48 15 27 0
32 -4 32 -23 0 -30 -16 -49 -63 -75 -116 -66 -267 27 -267 163 0 145 152 231
273 155z m-4995 -147 c2 -137 0 -164 -13 -177 -25 -24 -54 -20 -65 10 -11 28
-14 275 -4 312 6 19 12 23 43 20 l36 -3 3 -162z"/>
<path d="M7359 5151 c-63 -13 -134 -80 -110 -104 10 -10 327 -10 343 -1 11 7
-26 59 -60 82 -31 22 -120 34 -173 23z"/>
<path d="M9093 5075 c-89 -22 -133 -81 -133 -181 0 -109 56 -177 156 -190 63
-7 138 2 156 20 7 7 21 17 32 23 21 12 65 106 66 140 0 41 -41 127 -73 153
-17 14 -54 30 -82 37 -59 14 -55 14 -122 -2z"/>
<path d="M2769 3854 c-33 -35 -32 -104 1 -139 19 -20 33 -25 71 -25 41 0 50 4
73 34 14 19 26 47 26 61 0 14 -12 42 -26 61 -23 30 -32 34 -73 34 -38 0 -52
-5 -72 -26z"/>
<path d="M2367 3854 c-11 -14 -17 -28 -14 -31 8 -7 167 -6 175 1 3 3 -5 17
-18 31 -19 20 -33 25 -74 25 -43 -1 -54 -5 -69 -26z"/>
<path d="M3956 3849 c-17 -19 -26 -43 -26 -64 0 -21 9 -45 26 -64 22 -27 32
-31 74 -31 43 0 50 4 74 34 34 45 33 83 -4 124 -25 27 -37 32 -74 32 -37 0
-48 -5 -70 -31z"/>
<path d="M4785 3843 c-32 -47 -32 -76 0 -117 44 -58 123 -55 158 4 25 41 21
83 -9 119 -22 27 -32 31 -75 31 -45 0 -50 -3 -74 -37z"/>
<path d="M6012 3850 c-13 -17 -22 -44 -22 -65 0 -21 9 -48 22 -65 19 -26 28
-30 69 -30 69 0 99 27 99 89 0 67 -33 101 -99 101 -41 0 -50 -4 -69 -30z"/>
<path d="M6905 3880 c-29 -11 -60 -49 -49 -59 5 -4 47 -5 93 -2 l84 6 -24 26
c-26 29 -72 42 -104 29z"/>
<path d="M7610 3855 c-13 -14 -22 -27 -19 -29 8 -8 168 -10 175 -3 4 4 -3 18
-16 32 -19 20 -33 25 -70 25 -37 0 -51 -5 -70 -25z"/>
<path d="M8635 3843 c-14 -21 -25 -46 -25 -57 0 -27 49 -96 69 -96 9 0 26 -3
38 -6 17 -5 31 2 58 29 44 44 47 91 9 136 -22 27 -32 31 -75 31 -45 0 -50 -3
-74 -37z"/>
<path d="M9450 3855 c-14 -15 -20 -29 -14 -34 15 -13 164 -1 164 14 0 48 -110
63 -150 20z"/>
<path d="M10033 183 c29 -5 30 -8 27 -95 -1 -29 3 -48 9 -48 7 0 11 27 11 69
0 68 1 70 28 74 15 2 -2 4 -38 4 -36 0 -53 -2 -37 -4z"/>
<path d="M10360 115 c0 -83 16 -103 22 -27 4 61 -1 102 -13 102 -5 0 -9 -34
-9 -75z"/>
<path d="M10480 115 l0 -75 30 0 c28 0 70 29 70 49 0 5 -7 14 -15 21 -11 9
-12 17 -5 30 13 25 -12 50 -51 50 l-29 0 0 -75z m68 38 c3 -19 -1 -23 -22 -23
-21 0 -26 5 -26 26 0 21 4 25 23 22 14 -2 23 -11 25 -25z m-4 -39 c9 -3 16
-16 16 -29 0 -22 -17 -35 -46 -35 -9 0 -14 11 -14 35 0 36 10 42 44 29z"/>
<path d="M10610 125 c0 -57 3 -66 23 -76 18 -9 20 -9 10 2 -8 7 -13 39 -13 76
0 35 -4 63 -10 63 -6 0 -10 -28 -10 -65z"/>
<path d="M10929 171 c-17 -13 -23 -29 -23 -56 0 -37 29 -75 58 -75 6 0 2 6 -9
12 -28 16 -35 28 -35 64 0 30 19 56 50 67 12 4 12 6 -1 6 -9 1 -27 -7 -40 -18z"/>
<path d="M10166 142 c-3 -5 4 -8 16 -8 32 1 33 -22 1 -27 -23 -3 -22 -4 10 -6
41 -1 46 8 19 32 -20 18 -38 22 -46 9z"/>
<path d="M10278 138 c-28 -22 -31 -55 -9 -77 12 -12 27 -21 33 -21 7 0 2 7
-10 16 -38 27 -18 96 23 80 9 -3 13 -2 10 4 -8 14 -28 13 -47 -2z"/>
<path d="M10413 139 c12 -7 17 -23 17 -54 0 -25 5 -45 10 -45 6 0 10 18 10 39
0 39 -20 71 -43 71 -7 0 -4 -5 6 -11z"/>
<path d="M10698 139 c-10 -5 -18 -15 -18 -22 0 -8 3 -9 8 -1 4 6 16 16 27 22
11 6 16 11 10 11 -5 0 -18 -4 -27 -10z"/>
<path d="M10806 134 c-19 -19 -20 -25 -3 -49 16 -21 61 -15 71 10 15 41 -37
71 -68 39z m42 -3 c19 -11 11 -45 -11 -49 -19 -4 -32 20 -23 43 6 17 15 19 34
6z"/>
<path d="M11045 126 c-29 -43 12 -99 55 -76 27 15 34 47 16 75 -21 32 -51 32
-71 1z m63 -27 c3 -38 -13 -54 -43 -43 -18 7 -20 55 -3 72 22 22 43 9 46 -29z"/>
<path d="M11160 95 c0 -30 5 -55 10 -55 6 0 10 25 10 55 0 30 -4 55 -10 55 -5
0 -10 -25 -10 -55z"/>
<path d="M11240 96 c0 -31 5 -56 10 -56 6 0 10 22 10 49 0 28 -4 53 -10 56 -6
4 -10 -15 -10 -49z"/>
<path d="M11276 141 c-3 -5 2 -8 12 -7 14 1 18 -9 20 -46 2 -27 7 -48 13 -48
12 0 12 66 -1 91 -11 20 -35 25 -44 10z"/>
<path d="M11370 130 c-11 -11 -20 -27 -20 -35 0 -19 36 -55 54 -55 8 0 18 5
22 12 4 7 3 8 -5 4 -19 -12 -51 4 -51 25 0 16 7 19 41 19 33 0 40 3 35 16 -3
9 -6 18 -6 20 0 2 -4 4 -10 4 -5 0 -7 -7 -4 -15 5 -11 -1 -15 -25 -15 -36 0
-40 12 -8 28 12 6 16 11 10 11 -7 1 -22 -8 -33 -19z"/>
<path d="M11480 95 c0 -30 5 -55 10 -55 6 0 10 25 10 55 0 30 -4 55 -10 55 -5
0 -10 -25 -10 -55z"/>
<path d="M11515 140 c-3 -6 1 -7 9 -4 18 7 21 14 7 14 -6 0 -13 -4 -16 -10z"/>
<path d="M11640 130 c-11 -11 -20 -27 -20 -35 0 -18 35 -55 53 -55 6 0 19 5
27 11 12 8 10 9 -8 4 -49 -14 -72 50 -30 79 12 9 17 16 10 16 -6 0 -21 -9 -32
-20z"/>
<path d="M11749 129 c-14 -14 -18 -27 -14 -42 8 -24 32 -47 49 -46 6 0 1 5
-11 11 -42 20 -20 101 22 84 9 -3 15 -18 15 -36 0 -16 5 -30 10 -30 15 0 12
33 -6 58 -19 27 -38 28 -65 1z"/>
<path d="M11851 94 c-1 -30 2 -54 8 -54 13 0 19 99 5 104 -7 3 -11 -16 -13
-50z"/>
<path d="M11898 139 c6 -7 12 -32 12 -56 0 -60 17 -54 22 7 1 28 0 50 -4 50
-3 0 -15 3 -25 6 -15 6 -16 4 -5 -7z"/>
<path d="M11963 137 c4 -10 7 -36 7 -58 0 -21 5 -39 10 -39 18 0 12 86 -7 101
-15 12 -16 12 -10 -4z"/>
<path d="M10745 95 c0 -39 2 -43 13 -28 6 9 12 22 12 28 0 6 -6 19 -12 28 -11
15 -13 11 -13 -28z"/>
<path d="M10137 113 c-15 -41 38 -92 65 -65 8 8 5 9 -9 6 -24 -7 -40 12 -45
51 -3 28 -4 28 -11 8z"/>
<path d="M10670 92 c0 -5 6 -17 14 -27 13 -18 14 -18 9 8 -5 24 -23 39 -23 19z"/>
<path d="M11556 61 c-4 -5 -2 -12 3 -15 5 -4 12 -2 15 3 4 5 2 12 -3 15 -5 4
-12 2 -15 -3z"/>
<path d="M10833 43 c37 -6 29 -29 -9 -26 -25 2 -27 1 -10 -9 13 -7 25 -7 43 1
34 15 24 36 -18 37 -27 2 -29 1 -6 -3z"/>
</g>
</svg>
