<?xml version="1.0" encoding="iso-8859-1"?>
<!-- Uploaded to: SVG Repo, www.svgrepo.com, Generator: SVG Repo Mixer Tools -->
<svg fill="white" version="1.1" id="Layer_1" xmlns="http://www.w3.org/2000/svg" xmlns:xlink="http://www.w3.org/1999/xlink" 
	 viewBox="0 0 512 512" xml:space="preserve">
<g>
	<g>
		<g>
			<path d="M21.333,192C9.551,192,0,201.551,0,213.333v85.333C0,310.449,9.551,320,21.333,320c11.782,0,21.333-9.551,21.333-21.333
				v-85.333C42.667,201.551,33.115,192,21.333,192z"/>
			<path d="M85.333,149.333c-11.782,0-21.333,9.551-21.333,21.333v170.667c0,11.782,9.551,21.333,21.333,21.333
				c11.782,0,21.333-9.551,21.333-21.333V170.667C106.667,158.885,97.115,149.333,85.333,149.333z"/>
			<path d="M490.667,192c-11.782,0-21.333,9.551-21.333,21.333v85.333c0,11.782,9.551,21.333,21.333,21.333S512,310.449,512,298.667
				v-85.333C512,201.551,502.449,192,490.667,192z"/>
			<path d="M426.667,149.333c-11.782,0-21.333,9.551-21.333,21.333v170.667c0,11.782,9.551,21.333,21.333,21.333
				S448,353.115,448,341.333V170.667C448,158.885,438.449,149.333,426.667,149.333z"/>
			<path d="M362.667,106.667c-11.782,0-21.333,9.551-21.333,21.333v64H170.667v-64c0-11.782-9.551-21.333-21.333-21.333
				C137.551,106.667,128,116.218,128,128v85.333v85.333V384c0,11.782,9.551,21.333,21.333,21.333
				c11.782,0,21.333-9.551,21.333-21.333v-64h170.667v64c0,11.782,9.551,21.333,21.333,21.333S384,395.782,384,384v-85.333v-85.333
				V128C384,116.218,374.449,106.667,362.667,106.667z M170.667,277.333v-42.667h170.667v42.667H170.667z"/>
		</g>
	</g>
</g>
</svg>