<!DOCTYPE svg PUBLIC "-//W3C//DTD SVG 1.1//EN" "http://www.w3.org/Graphics/SVG/1.1/DTD/svg11.dtd">
<!-- Uploaded to: SVG Repo, www.svgrepo.com, Transformed by: SVG Repo Mixer Tools -->
<svg fill="#ffffff" width="800px" height="800px" viewBox="0 0 32 32" style="fill-rule:evenodd;clip-rule:evenodd;stroke-linejoin:round;stroke-miterlimit:2;" version="1.1" xml:space="preserve" xmlns="http://www.w3.org/2000/svg" xmlns:serif="http://www.serif.com/" xmlns:xlink="http://www.w3.org/1999/xlink">
<g id="SVGRepo_bgCarrier" stroke-width="0"/>
<g id="SVGRepo_tracerCarrier" stroke-linecap="round" stroke-linejoin="round"/>
<g id="SVGRepo_iconCarrier">
<path d="M12.022,23.997l-0.002,-0c-1.104,-0 -2.001,0.897 -2.001,2.001c-0,1.105 0.897,2.002 2.001,2.002c1.105,0 2.002,-0.897 2.002,-2.002l0,-7.122c0,-0 6.001,-0.75 6.001,-0.75l0.003,3.867c-1.105,0 -2.002,0.897 -2.002,2.002c-0,1.105 0.897,2.002 2.002,2.002c1.104,-0 2.001,-0.897 2.001,-2.002l-0.005,-7.003c-0,-0.286 -0.123,-0.559 -0.338,-0.749c-0.215,-0.189 -0.501,-0.278 -0.786,-0.242l-8,1c-0.5,0.062 -0.876,0.488 -0.876,0.992l0,6.004Z"/>
<path d="M8.951,14.98c1.811,-1.82 4.318,-2.947 7.086,-2.947c2.755,0 5.251,1.117 7.06,2.921c0.391,0.39 1.025,0.39 1.414,-0.001c0.39,-0.391 0.389,-1.025 -0.001,-1.414c-2.171,-2.166 -5.167,-3.506 -8.473,-3.506c-3.322,0 -6.33,1.352 -8.503,3.536c-0.39,0.391 -0.388,1.025 0.003,1.414c0.391,0.389 1.025,0.388 1.414,-0.003Z"/>
<path d="M4.975,10.074c2.972,-2.545 6.832,-4.083 11.048,-4.083c4.203,-0 8.052,1.528 11.02,4.059c0.42,0.358 1.051,0.308 1.409,-0.112c0.359,-0.42 0.308,-1.052 -0.112,-1.41c-3.317,-2.829 -7.619,-4.537 -12.317,-4.537c-4.713,-0 -9.027,1.719 -12.349,4.564c-0.419,0.359 -0.468,0.99 -0.109,1.41c0.359,0.419 0.991,0.468 1.41,0.109Z"/>
</g>
</svg>