<!DOCTYPE svg PUBLIC "-//W3C//DTD SVG 1.1//EN" "http://www.w3.org/Graphics/SVG/1.1/DTD/svg11.dtd">
<!-- Uploaded to: SVG Repo, www.svgrepo.com, Transformed by: SVG Repo Mixer Tools -->
<svg fill="#ffffff" version="1.1" id="Capa_1" xmlns="http://www.w3.org/2000/svg" xmlns:xlink="http://www.w3.org/1999/xlink" width="800px" height="800px" viewBox="0 0 317.48 317.48" xml:space="preserve">
<g id="SVGRepo_bgCarrier" stroke-width="0"/>
<g id="SVGRepo_tracerCarrier" stroke-linecap="round" stroke-linejoin="round"/>
<g id="SVGRepo_iconCarrier"> <g> <path d="M62.911,317.48h191.656c16.896,0,30.603-13.701,30.603-30.603V30.6c0-16.898-13.707-30.6-30.603-30.6H62.911 c-16.899,0-30.6,13.701-30.6,30.6v256.278C32.311,303.779,46.007,317.48,62.911,317.48z M157.41,296.934 c-39.9,0-72.246-32.343-72.246-72.245s32.345-72.245,72.246-72.245c39.897,0,72.245,32.343,72.245,72.245 S197.307,296.934,157.41,296.934z M57.99,21.543h198.84v107.703H57.99V21.543z"/> <path d="M157.41,189.271c19.558,0,35.413,15.86,35.413,35.418s-15.855,35.419-35.413,35.419c-19.558,0-35.416-15.861-35.416-35.419 S137.852,189.271,157.41,189.271z"/> <path d="M193.972,70.145l-67.73-38.554c-5.09-2.895-9.217-0.497-9.217,5.359v76.885c0,5.862,4.127,8.256,9.217,5.362l67.73-38.554 C199.068,77.744,199.068,73.045,193.972,70.145z"/> </g> </g>
</svg>