<!DOCTYPE svg PUBLIC "-//W3C//DTD SVG 1.1//EN" "http://www.w3.org/Graphics/SVG/1.1/DTD/svg11.dtd">
<!-- Uploaded to: SVG Repo, www.svgrepo.com, Transformed by: SVG Repo Mixer Tools -->
<svg fill="#ffffff" height="800px" width="800px" version="1.1" id="Layer_1" xmlns="http://www.w3.org/2000/svg" xmlns:xlink="http://www.w3.org/1999/xlink" viewBox="0 0 512 512" xml:space="preserve" stroke="#ffffff">
<g id="SVGRepo_bgCarrier" stroke-width="0"/>
<g id="SVGRepo_tracerCarrier" stroke-linecap="round" stroke-linejoin="round"/>
<g id="SVGRepo_iconCarrier"> <g> <g> <path d="M444.957,232.165v-43.208C444.957,84.765,360.191,0,256,0S67.041,84.765,67.041,188.958v43.208 c-35.926,3.697-64.04,34.138-64.04,71.024v50.404c0,39.372,32.031,71.403,71.403,71.403h14.457 C89.178,473.023,128.334,512,176.435,512c48.295,0,87.588-39.291,87.588-87.588V280.846h3.622c9.843,0,17.851-8.007,17.851-17.85 v-46.371c0-9.843-8.007-17.85-17.851-17.85h-3.901v-31.823c0-4.432-3.591-8.023-8.022-8.023c-4.431,0-8.023,3.591-8.023,8.023 v31.823h-3.342c-9.843,0-17.851,8.007-17.851,17.85v46.371c0,9.843,8.007,17.85,17.851,17.85h3.622v143.567 c0,39.448-32.094,71.541-71.541,71.541c-39.253,0-71.211-31.777-71.527-70.957h30.66c13.023,0,23.618-10.595,23.618-23.618 V255.405c0-13.023-10.595-23.618-23.618-23.618h-8.869v-42.829c0-71.295,58.004-129.299,129.301-129.299 c71.295,0,129.299,58.004,129.299,129.299v42.829h-8.868c-13.023,0-23.618,10.595-23.618,23.618v145.974 c0,13.023,10.595,23.618,23.618,23.618h61.163c39.372,0,71.403-32.031,71.403-71.403V303.19 C508.998,266.303,480.882,235.862,444.957,232.165z M242.55,216.625c0-0.995,0.809-1.804,1.805-1.804h23.29 c0.995,0,1.805,0.81,1.805,1.804v7.864H242.55V216.625z M244.355,264.799c-0.995,0-1.805-0.81-1.805-1.804v-22.461h26.899v22.461 c0,0.995-0.81,1.804-1.805,1.804H244.355z M385.299,408.95h-8.868c-4.175,0-7.572-3.396-7.572-7.572V255.405 c0-4.175,3.396-7.572,7.572-7.572h8.868V408.95z M19.049,317.921h23.193v20.941H19.049V317.921z M110.653,408.95H74.405 c-30.083,0-54.62-24.125-55.324-54.042h23.997c8.387,0,15.21-6.824,15.21-15.211v-22.614c0-8.387-6.824-15.21-15.21-15.21H19.082 c0.703-29.917,25.24-54.043,55.324-54.043h36.248V408.95z M135.569,247.833c4.175,0,7.572,3.396,7.572,7.572v145.974 c0,4.175-3.396,7.572-7.572,7.572h-8.869V247.833H135.569z M256,43.612c-80.145,0-145.347,65.202-145.347,145.346v42.829H83.088 v-42.829c0-95.343,77.568-172.911,172.912-172.911c95.343,0,172.911,77.568,172.911,172.911v42.829h-27.564v-42.829 C401.346,108.814,336.144,43.612,256,43.612z M437.595,408.95h-36.249V247.833h36.249c30.083,0,54.621,24.126,55.324,54.043 h-23.997c-8.387,0-15.21,6.823-15.21,15.21v22.614c0,8.387,6.823,15.211,15.21,15.211h23.997 C492.214,384.825,467.676,408.95,437.595,408.95z M492.951,338.863h-23.193v-20.942h23.193V338.863z"/> </g> </g> </g>
</svg>