<!DOCTYPE svg PUBLIC "-//W3C//DTD SVG 1.1//EN" "http://www.w3.org/Graphics/SVG/1.1/DTD/svg11.dtd">
<!-- Uploaded to: SVG Repo, www.svgrepo.com, Transformed by: SVG Repo Mixer Tools -->
<svg fill="#ffffff" height="800px" width="800px" version="1.1" id="Layer_1" xmlns="http://www.w3.org/2000/svg" xmlns:xlink="http://www.w3.org/1999/xlink" viewBox="0 0 512 512" xml:space="preserve" stroke="#ffffff">
<g id="SVGRepo_bgCarrier" stroke-width="0"/>
<g id="SVGRepo_tracerCarrier" stroke-linecap="round" stroke-linejoin="round"/>
<g id="SVGRepo_iconCarrier"> <g> <g> <path d="M456.62,357.359c-5.771,0-10.449,4.679-10.449,10.449v4.678c0,5.771,4.678,10.449,10.449,10.449 c5.771,0,10.449-4.678,10.449-10.449v-4.678C467.069,362.037,462.391,357.359,456.62,357.359z"/> </g> </g> <g> <g> <path d="M55.38,357.358c-5.771,0-10.449,4.679-10.449,10.449v4.678c0,5.771,4.678,10.449,10.449,10.449 c5.771,0,10.449-4.678,10.449-10.449v-4.678C65.829,362.037,61.151,357.358,55.38,357.358z"/> </g> </g> <g> <g> <path d="M437.026,96.595c-0.002-0.002-0.004-0.004-0.006-0.007c-0.002-0.002-0.004-0.004-0.007-0.006 c-48.351-48.347-112.637-74.975-181.016-74.975c-68.379,0-132.665,26.628-181.017,74.98C26.628,144.939,0,209.225,0,277.605 v160.541c0,28.807,23.437,52.244,52.244,52.244l73.732,0.002c5.771,0,10.449-4.678,10.449-10.449V321.117 c0-5.771-4.678-10.449-10.449-10.449H52.244c-11.752,0-22.608,3.903-31.346,10.477v-43.54c0-61.066,23.409-116.764,61.717-158.606 l17.702,17.702c4.064,4.063,10.643,4.082,14.731,0.046c37.785-37.31,87.842-57.859,140.951-57.859 c53.11,0,103.169,20.548,140.955,57.859c2.035,2.009,4.688,3.013,7.341,3.013c2.675,0,5.349-1.021,7.388-3.06l17.701-17.701 c38.309,41.843,61.718,97.54,61.718,158.606v43.543c-8.737-6.574-19.594-10.477-31.347-10.477l-73.733-0.002 c-5.771,0-10.449,4.678-10.449,10.449v158.827c0,5.771,4.678,10.449,10.449,10.449h73.733c28.808,0,52.245-23.437,52.245-52.245 V277.605C512,209.229,485.374,144.945,437.026,96.595z M100.898,331.566h14.63v137.929h-0.001h-14.629V331.566z M52.244,331.566 h27.756v137.927H65.829V406.29c0-5.771-4.678-10.449-10.449-10.449c-5.771,0-10.449,4.678-10.449,10.449v62.332 c-13.766-3.304-24.033-15.71-24.033-30.475v-75.235C20.898,345.628,34.96,331.566,52.244,331.566z M404.08,114.75 c-40.728-36.678-92.915-56.759-148.082-56.759c-55.165,0-107.352,20.081-148.078,56.759l-10.528-10.527 c41.842-38.308,97.539-61.717,158.605-61.717c61.068,0,116.766,23.409,158.61,61.718L404.08,114.75z M396.471,469.495V331.566 h14.63l0.001,137.929H396.471z M491.101,438.148c0,14.766-10.265,27.173-24.032,30.477V406.29c0-5.771-4.678-10.449-10.449-10.449 c-5.771,0-10.449,4.678-10.449,10.449v63.205H432l-0.001-137.927h27.757c17.284,0,31.346,14.061,31.346,31.345V438.148z"/> </g> </g> </g>
</svg>