<!DOCTYPE svg PUBLIC "-//W3C//DTD SVG 1.1//EN" "http://www.w3.org/Graphics/SVG/1.1/DTD/svg11.dtd">
<!-- Uploaded to: SVG Repo, www.svgrepo.com, Transformed by: SVG Repo Mixer Tools -->
<svg fill="#ffffff" height="800px" width="800px" version="1.1" id="Layer_1" xmlns="http://www.w3.org/2000/svg" xmlns:xlink="http://www.w3.org/1999/xlink" viewBox="0 0 512.118 512.118" xml:space="preserve">
<g id="SVGRepo_bgCarrier" stroke-width="0"/>
<g id="SVGRepo_tracerCarrier" stroke-linecap="round" stroke-linejoin="round"/>
<g id="SVGRepo_iconCarrier"> <g transform="translate(1 1)"> <g> <g> <path d="M476.926,144.185H369.121l-31.289-46.933c-1.707-1.707-4.267-3.413-6.827-3.413h-57.949l65.629-80.213 c3.413-3.413,2.56-9.387-0.853-11.947c-3.413-3.413-8.533-2.56-11.947,0.853l-70.478,86.139L184.232,1.678 c-2.56-3.413-8.533-3.413-11.947-0.853s-3.413,8.533-0.853,11.947l66.327,81.067h-60.354c-2.56,0-5.12,0.853-6.827,3.413 l-31.289,46.933H33.192c-18.773,0-34.133,15.36-34.133,34.133v298.667c0,18.773,15.36,34.133,34.133,34.133h443.733 c18.773,0,34.133-15.36,34.133-34.133V178.318C511.059,159.545,495.699,144.185,476.926,144.185z M182.526,110.051h145.067 l23.04,34.133H160.339L182.526,110.051z M493.992,476.985c0,9.387-7.68,17.067-17.067,17.067H33.192 c-9.387,0-17.067-7.68-17.067-17.067V178.318c0-9.387,7.68-17.067,17.067-17.067h110.933h221.867h110.933 c9.387,0,17.067,7.68,17.067,17.067V476.985z"/> <path d="M348.926,186.851H50.259c-5.12,0-8.533,3.413-8.533,8.533v264.533c0,5.12,3.413,8.533,8.533,8.533h34.133h230.4h34.133 c5.12,0,8.533-3.413,8.533-8.533V195.385C357.459,190.265,354.046,186.851,348.926,186.851z M92.926,451.385v-17.067h42.667 h119.467h51.2v17.067H92.926z M161.192,272.185c0-18.773,15.36-34.133,34.133-34.133c18.773,0,34.133,15.36,34.133,34.133 c0,18.773-15.36,34.133-34.133,34.133C176.552,306.318,161.192,290.958,161.192,272.185z M246.526,417.251h-102.4v-46.933 c0-25.6,23.04-46.933,51.2-46.933c28.16,0,51.2,21.333,51.2,46.933V417.251z M340.392,451.385h-17.067v-25.6 c0-5.12-3.413-8.533-8.533-8.533h-51.2v-46.933c0-24.762-15.397-46.516-37.702-57.126c12.504-9.358,20.635-24.279,20.635-41.007 c0-28.16-23.04-51.2-51.2-51.2c-28.16,0-51.2,23.04-51.2,51.2c0,16.728,8.131,31.649,20.635,41.007 c-22.305,10.61-37.702,32.364-37.702,57.126v46.933H84.392c-5.12,0-8.533,3.413-8.533,8.533v25.6H58.792V203.918h281.6V451.385z"/> <path d="M425.726,186.851c-23.893,0-42.667,18.773-42.667,42.667s18.773,42.667,42.667,42.667s42.667-18.773,42.667-42.667 S449.619,186.851,425.726,186.851z M425.726,255.118c-14.507,0-25.6-11.093-25.6-25.6c0-14.507,11.093-25.6,25.6-25.6 c4.061,0,7.855,0.871,11.212,2.441l-17.186,17.186c-3.413,3.413-3.413,8.533,0,11.947c1.707,1.707,3.413,2.56,5.973,2.56 s4.267-0.853,5.973-2.56l17.186-17.186c1.57,3.358,2.441,7.151,2.441,11.212C451.326,244.025,440.232,255.118,425.726,255.118z"/> <path d="M425.726,297.785c-23.893,0-42.667,18.773-42.667,42.667c0,23.893,18.773,42.667,42.667,42.667 s42.667-18.773,42.667-42.667C468.392,316.558,449.619,297.785,425.726,297.785z M434.259,364.676v-24.224 c0-5.12-3.413-8.533-8.533-8.533s-8.533,3.413-8.533,8.533v24.224c-10.103-3.391-17.067-12.734-17.067-24.224 c0-14.507,11.093-25.6,25.6-25.6s25.6,11.093,25.6,25.6C451.326,351.942,444.362,361.285,434.259,364.676z"/> <path d="M454.739,409.572h-57.173c-7.68,0-13.653,5.973-13.653,13.653v31.573c0,7.68,5.973,13.653,13.653,13.653h57.173 c7.68,0,13.653-5.973,13.653-13.653v-31.573C468.392,415.545,462.419,409.572,454.739,409.572z M451.326,451.385h-51.2v-25.6 h51.2V451.385z"/> </g> </g> </g> </g>
</svg>